<?xml version="1.0" encoding="utf-8"?>
<!-- Generator: Adobe Illustrator 16.0.4, SVG Export Plug-In . SVG Version: 6.00 Build 0)  -->
<!DOCTYPE svg PUBLIC "-//W3C//DTD SVG 1.1//EN" "http://www.w3.org/Graphics/SVG/1.1/DTD/svg11.dtd">
<svg version="1.1" id="Layer_1" xmlns="http://www.w3.org/2000/svg" xmlns:xlink="http://www.w3.org/1999/xlink" x="0px" y="0px"
	 width="511.54px" height="353.808px" viewBox="0 0 511.54 353.808" enable-background="new 0 0 511.54 353.808"
	 xml:space="preserve">
<path fill="none" d="M406.192,174.737h-70.596v76.765c1.417,2.34,2.784,4.713,4.096,7.119h66.5V174.737z"/>
<path fill="none" d="M242.029,174.737c4.881,1.762,9.663,3.729,14.339,5.89v-5.89H242.029z"/>
<path fill="none" d="M260.685,102.913v67.647h70.871V91.149H272.7L260.685,102.913z M273.995,104.324h13.15v17.603h-13.15V104.324z"
	/>
<polygon fill="none" points="410.508,170.468 473.59,170.468 410.508,107.918 "/>
<path fill="none" d="M321.53,262.937h-60.776v85.445h70.526v-65.842C328.462,275.763,325.201,269.218,321.53,262.937z"/>
<path fill="none" d="M256.369,258.72v-58.102c-21.213-11.156-45.169-17.771-70.573-18.539v76.641H256.369z M199.109,214.56h13.15
	v17.6h-13.15V214.56z"/>
<path fill="none" d="M265.552,91.149l67.999-66.579l58.119,57.628l18.838,18.678l69.606,69.019h19.206L410.508,82.59l-0.397-0.391
	L333.616,7.001L172.71,164.251c2.687-0.119,5.386-0.191,8.101-0.191c3.352,0,6.68,0.1,9.988,0.281l69.886-68.427L265.552,91.149z"/>
<rect x="273.995" y="104.324" width="13.15" height="17.603"/>
<rect x="467.815" y="320.318" width="13.151" height="17.6"/>
<rect x="199.109" y="214.56" width="13.15" height="17.6"/>
<path d="M185.795,305.177v-45.682v-0.775V182.08c-0.023,0-0.047-0.002-0.07-0.002v123.096
	C185.749,305.175,185.772,305.175,185.795,305.177z"/>
<path fill="none" d="M180.812,176.996c92.567,0,167.875,75.307,167.875,167.873c0,1.256-0.014,2.523-0.042,3.789h7.938
	c0.026-1.246,0.039-2.514,0.039-3.789c0-96.941-78.868-175.809-175.811-175.809S5,247.927,5,344.869c0,1.24,0.013,2.477,0.038,3.697
	l7.938,0.006c-0.027-1.25-0.04-2.488-0.04-3.703C12.936,252.302,88.245,176.996,180.812,176.996z"/>
<path fill="none" d="M219.837,353.449c0.168-1.463,0.255-2.953,0.255-4.463c0-21.15-17.145-38.291-38.291-38.291
	s-38.291,17.141-38.291,38.291"/>
<path fill="none" d="M128.892,221.726c-3.593-9.264-12.57-15.846-23.104-15.846c-13.692,0-24.794,11.102-24.794,24.795
	c0,6.193,2.289,11.842,6.037,16.189l-0.013,0.008l0.258,0.258c0.688,0.775,1.423,1.512,2.208,2.195l65.313,64.938
	c3.107-2.42,6.543-4.434,10.236-5.957l-36.12-86.592L128.892,221.726z"/>
<path fill="none" d="M84.176,254.322c-6.863-7.164-17.683-9.803-27.411-5.762c-12.644,5.25-18.638,19.766-13.384,32.412
	c2.375,5.711,6.654,10.053,11.783,12.631l-0.008,0.018l0.335,0.133c0.939,0.455,1.894,0.855,2.884,1.184l84.044,34.434
	c1.869-3.744,4.251-7.186,7.062-10.229L84.194,254.31L84.176,254.322z"/>
<path fill="none" d="M137.82,348.369c0.06-4.297,0.726-8.447,1.933-12.363l-84.434-35.049l-0.008,0.018
	c-9.072-4.033-20.08-2.385-27.55,5.043c-9.716,9.652-9.769,25.352-0.116,35.068c4.359,4.379,9.962,6.785,15.689,7.225l-0.003,0.021
	h0.361c0.515,0.035,1.031,0.051,1.545,0.051c0.01,0,0.02,0,0.03,0c0.515,0,1.028-0.016,1.54-0.051L137.82,348.369z"/>
<path fill="none" d="M134.685,198.91c-2.393,5.709-2.466,11.805-0.685,17.262l-0.017,0.002l0.138,0.338
	c0.335,0.98,0.731,1.945,1.192,2.879l35.903,86.889c1.899-0.469,3.847-0.816,5.834-1.031V193.195
	c-2.522-3.232-5.871-5.889-9.923-7.586c-3.173-1.328-6.466-1.945-9.703-1.928c-2.693,0.016-5.346,0.479-7.859,1.334
	C143.082,187.226,137.538,192.093,134.685,198.91z"/>
<path d="M410.233,263.005h74.911v-88.109h26.396L333.625,0L165.04,164.756C72.699,172.775,0,250.486,0,344.869
	c0,2.125,0.037,4.24,0.109,6.283l0.085,2.41h0.18v0.162h140.524c0,0,2.954,0.033,2.922-0.029l-0.086-0.521
	c-0.147-1.373-0.224-2.771-0.224-4.188c0-21.15,17.145-38.291,38.291-38.291s38.291,17.141,38.291,38.291
	c0,1.51-0.086,3-0.255,4.463l-0.048,0.293c0.001,0.158,265.652-0.018,265.652-0.018v-5.342h-75.209V263.005z M410.508,170.468
	v-62.55l63.082,62.55H410.508z M333.616,7.001l76.495,75.198l0.397,0.391l88.812,87.306h-19.206l-69.606-69.019L391.67,82.199
	l-58.119-57.628l-67.999,66.579l-4.867,4.765l-69.886,68.427c-3.308-0.182-6.636-0.281-9.988-0.281
	c-2.715,0-5.415,0.072-8.101,0.191L333.616,7.001z M335.596,174.737h70.596v83.884h-66.5c-1.312-2.406-2.679-4.779-4.096-7.119
	V174.737z M333.684,31.744l50.886,50.456h-48.904L333.684,31.744z M331.556,91.149v79.411h-70.871v-67.647L272.7,91.149H331.556z
	 M256.369,174.737v5.89c-4.677-2.16-9.458-4.128-14.339-5.89H256.369z M180.812,169.06c96.943,0,175.811,78.867,175.811,175.809
	c0,1.275-0.013,2.543-0.039,3.789h-7.938c0.028-1.266,0.042-2.533,0.042-3.789c0-92.566-75.309-167.873-167.875-167.873
	S12.936,252.302,12.936,344.869c0,1.215,0.013,2.453,0.04,3.703l-7.938-0.006C5.013,347.345,5,346.109,5,344.869
	C5,247.927,83.869,169.06,180.812,169.06z M45.237,348.382c-0.515,0-1.03-0.016-1.545-0.051H43.33l0.003-0.021
	c-5.727-0.439-11.33-2.846-15.689-7.225c-9.652-9.717-9.6-25.416,0.116-35.068c7.471-7.428,18.478-9.076,27.55-5.043l0.008-0.018
	l84.434,35.049c-1.208,3.916-1.874,8.066-1.933,12.363c0,0.006,0,0.01,0,0.014H45.267C45.257,348.382,45.247,348.382,45.237,348.382
	z M142.419,329.371l-84.044-34.434c-0.99-0.328-1.945-0.729-2.884-1.184l-0.335-0.133l0.008-0.018
	c-5.129-2.578-9.408-6.92-11.783-12.631c-5.253-12.646,0.741-27.162,13.384-32.412c9.729-4.041,20.548-1.402,27.411,5.762
	l0.018-0.012l65.287,64.832C146.67,322.185,144.288,325.626,142.419,329.371z M154.797,314.263l-65.313-64.938
	c-0.785-0.684-1.52-1.42-2.208-2.195l-0.258-0.258l0.013-0.008c-3.749-4.348-6.037-9.996-6.037-16.189
	c0-13.693,11.103-24.795,24.794-24.795c10.535,0,19.511,6.582,23.104,15.846l0.021-0.012l36.12,86.592
	C161.34,309.83,157.904,311.843,154.797,314.263z M135.313,219.39c-0.461-0.934-0.857-1.898-1.192-2.879l-0.138-0.338l0.017-0.002
	c-1.781-5.457-1.708-11.553,0.685-17.262c2.854-6.816,8.397-11.684,14.881-13.895c2.513-0.855,5.166-1.318,7.859-1.334
	c3.236-0.018,6.529,0.6,9.703,1.928c4.053,1.697,7.401,4.354,9.923,7.586v112.053c-1.988,0.215-3.935,0.562-5.834,1.031
	L135.313,219.39z M185.725,182.078c0.023,0,0.047,0.002,0.07,0.002c25.404,0.768,49.36,7.383,70.573,18.539v58.102h-70.573
	L185.725,182.078z M260.753,348.382v-85.445h60.776c3.671,6.281,6.933,12.826,9.75,19.604v65.842H260.753z"/>
</svg>
