<svg version="1.1" id="logo" xmlns="http://www.w3.org/2000/svg" xmlns:xlink="http://www.w3.org/1999/xlink" x="0px" y="0px" viewBox="0 0 90.862 90.863" xml:space="preserve">
	<circle fill="#333" cx="45.432" cy="45.431" r="45.431"/>
	<path fill="#fff" d="M75.819,33.564c-0.869,2.262-1.739,4.525-2.608,6.788c-1.495,3.892-2.991,7.783-4.487,11.676c-0.527,1.375-1.057,2.749-1.584,4.124c1.708,0,3.416,0,5.124,0c-0.729-2.356-1.459-4.711-2.188-7.065c-1.225-3.955-2.45-7.908-3.675-11.863c-0.378-1.22-0.756-2.439-1.134-3.66c-0.352-1.134-1.352-1.952-2.562-1.952c-1.236,0-2.178,0.822-2.562,1.952c-0.791,2.319-1.582,4.638-2.374,6.957c-1.341,3.93-2.682,7.861-4.022,11.791c-0.437,1.28-0.873,2.56-1.31,3.84c1.708,0,3.416,0,5.125,0c-0.918-2.229-1.836-4.458-2.753-6.686c-1.593-3.868-3.185-7.734-4.777-11.602c-0.59-1.434-1.181-2.867-1.771-4.301c-0.127-0.45-0.354-0.841-0.684-1.173c-0.331-0.329-0.723-0.557-1.173-0.684c-1.098-0.302-2.464,0.169-3.001,1.222c-1.067,2.093-2.134,4.186-3.201,6.278c-1.916,3.757-3.83,7.514-5.746,11.271c-0.856,1.679-1.712,3.357-2.569,5.038c1.53,0,3.06,0,4.59,0c-1.115-2.045-2.229-4.089-3.343-6.133c-2.024-3.714-4.049-7.428-6.073-11.142c-0.965-1.771-1.931-3.542-2.896-5.313c-0.444-0.815-1.38-1.317-2.295-1.317c-0.479,0.002-0.926,0.124-1.341,0.364c-0.399,0.236-0.717,0.554-0.954,0.953c-0.938,2.215-1.876,4.43-2.814,6.645c-1.633,3.857-3.267,7.713-4.9,11.57c-0.617,1.458-1.234,2.915-1.852,4.373c-0.089,0.211-0.179,0.423-0.268,0.635c-0.126,0.47-0.126,0.941,0,1.411c0.183,0.666,0.627,1.241,1.221,1.59c0.613,0.359,1.362,0.456,2.048,0.267c0.592-0.163,1.336-0.625,1.588-1.22c0.938-2.217,1.876-4.432,2.814-6.646c1.633-3.857,3.267-7.714,4.9-11.571c0.617-1.457,1.234-2.915,1.852-4.372c-1.53,0-3.059,0-4.589,0c1.115,2.043,2.229,4.088,3.343,6.133c2.024,3.713,4.048,7.428,6.073,11.14c0.965,1.771,1.931,3.543,2.896,5.315c0.923,1.691,3.688,1.769,4.59,0c1.067-2.093,2.134-4.188,3.201-6.28c1.915-3.756,3.831-7.513,5.746-11.27c0.856-1.68,1.712-3.359,2.569-5.038c-1.62-0.212-3.238-0.423-4.857-0.635c0.917,2.228,1.835,4.457,2.753,6.685c1.592,3.867,3.185,7.734,4.776,11.6c0.591,1.434,1.181,2.867,1.771,4.301c0.126,0.451,0.354,0.842,0.684,1.173c0.495,0.496,1.177,0.779,1.879,0.779c1.236,0,2.177-0.822,2.562-1.952c0.791-2.318,1.582-4.638,2.373-6.956c1.341-3.931,2.682-7.861,4.023-11.792c0.437-1.279,0.873-2.559,1.31-3.838c-1.709,0-3.417,0-5.125,0c0.729,2.354,1.459,4.71,2.188,7.065c1.226,3.954,2.45,7.907,3.675,11.861c0.379,1.22,0.756,2.44,1.135,3.659c0.352,1.136,1.352,1.952,2.562,1.952c0.479-0.002,0.927-0.122,1.341-0.362c0.642-0.377,0.963-0.916,1.221-1.59c0.87-2.262,1.739-4.524,2.609-6.788c1.495-3.891,2.991-7.783,4.486-11.674c0.529-1.375,1.057-2.749,1.585-4.124c0.244-0.635,0.062-1.484-0.268-2.048c-0.348-0.595-0.924-1.039-1.588-1.222c-0.687-0.189-1.434-0.091-2.048,0.269C76.399,32.351,76.078,32.892,75.819,33.564L75.819,33.564z"/>
</svg>
